<mxfile host="app.diagrams.net" modified="2022-05-26T13:33:59.164Z" agent="5.0 (Windows NT 10.0; Win64; x64) AppleWebKit/537.36 (KHTML, like Gecko) Chrome/101.0.4951.64 Safari/537.36 Edg/101.0.1210.53" etag="vNqhmProLgrLBgsYv7dY" version="18.0.7" type="github">
  <diagram id="JKGNgayGai7RwcoJ1suE" name="Page-1">
    <mxGraphModel dx="1449" dy="705" grid="1" gridSize="10" guides="1" tooltips="1" connect="1" arrows="1" fold="1" page="1" pageScale="1" pageWidth="1169" pageHeight="827" math="0" shadow="0">
      <root>
        <mxCell id="0" />
        <mxCell id="1" parent="0" />
        <mxCell id="blPEiR4erYXjFKSHEFdU-7" value="" style="edgeStyle=orthogonalEdgeStyle;rounded=0;orthogonalLoop=1;jettySize=auto;html=1;" parent="1" source="blPEiR4erYXjFKSHEFdU-1" target="blPEiR4erYXjFKSHEFdU-4" edge="1">
          <mxGeometry relative="1" as="geometry" />
        </mxCell>
        <mxCell id="blPEiR4erYXjFKSHEFdU-1" value="Storage Account V2" style="aspect=fixed;html=1;points=[];align=center;image;fontSize=12;image=img/lib/azure2/storage/Storage_Accounts.svg;" parent="1" vertex="1">
          <mxGeometry x="200" y="260" width="65" height="52" as="geometry" />
        </mxCell>
        <mxCell id="blPEiR4erYXjFKSHEFdU-3" style="edgeStyle=orthogonalEdgeStyle;rounded=0;orthogonalLoop=1;jettySize=auto;html=1;entryX=-0.002;entryY=0.632;entryDx=0;entryDy=0;entryPerimeter=0;exitX=0.5;exitY=1;exitDx=0;exitDy=0;" parent="1" source="blPEiR4erYXjFKSHEFdU-2" target="blPEiR4erYXjFKSHEFdU-1" edge="1">
          <mxGeometry relative="1" as="geometry" />
        </mxCell>
        <mxCell id="blPEiR4erYXjFKSHEFdU-2" value="External system generating CSV files in batches" style="rounded=1;whiteSpace=wrap;html=1;fontStyle=1" parent="1" vertex="1">
          <mxGeometry x="60" y="100" width="120" height="80" as="geometry" />
        </mxCell>
        <mxCell id="blPEiR4erYXjFKSHEFdU-8" value="" style="edgeStyle=orthogonalEdgeStyle;rounded=0;orthogonalLoop=1;jettySize=auto;html=1;" parent="1" source="blPEiR4erYXjFKSHEFdU-4" target="blPEiR4erYXjFKSHEFdU-5" edge="1">
          <mxGeometry relative="1" as="geometry" />
        </mxCell>
        <mxCell id="blPEiR4erYXjFKSHEFdU-4" value="Event Grid topic" style="aspect=fixed;html=1;points=[];align=center;image;fontSize=12;image=img/lib/azure2/integration/Event_Grid_Topics.svg;" parent="1" vertex="1">
          <mxGeometry x="330" y="261" width="55.83" height="50" as="geometry" />
        </mxCell>
        <mxCell id="blPEiR4erYXjFKSHEFdU-9" value="" style="edgeStyle=orthogonalEdgeStyle;rounded=0;orthogonalLoop=1;jettySize=auto;html=1;" parent="1" source="blPEiR4erYXjFKSHEFdU-5" target="blPEiR4erYXjFKSHEFdU-6" edge="1">
          <mxGeometry relative="1" as="geometry" />
        </mxCell>
        <mxCell id="blPEiR4erYXjFKSHEFdU-5" value="Event Grid subscription" style="aspect=fixed;html=1;points=[];align=center;image;fontSize=12;image=img/lib/azure2/integration/Event_Grid_Subscriptions.svg;" parent="1" vertex="1">
          <mxGeometry x="460" y="261" width="55.83" height="50" as="geometry" />
        </mxCell>
        <mxCell id="blPEiR4erYXjFKSHEFdU-11" value="&lt;span style=&quot;color: rgb(68, 68, 68); font-size: 12px; text-align: left; background-color: rgb(254, 254, 254);&quot;&gt;HTTP POST call to the&amp;nbsp;&lt;/span&gt;&lt;code style=&quot;box-sizing: border-box; font-family: monospace, monospace; font-size: 0.98em; overflow-wrap: break-word; text-align: left; background-color: rgb(254, 254, 254);&quot;&gt;/order/combineOrderContent&lt;/code&gt;&lt;span style=&quot;color: rgb(68, 68, 68); font-size: 12px; text-align: left; background-color: rgb(254, 254, 254);&quot;&gt;&amp;nbsp;endpoint&lt;/span&gt;" style="edgeStyle=orthogonalEdgeStyle;rounded=0;orthogonalLoop=1;jettySize=auto;html=1;exitX=0.566;exitY=0.994;exitDx=0;exitDy=0;exitPerimeter=0;" parent="1" source="DvCjDTtEMwee82FYKSQj-1" target="blPEiR4erYXjFKSHEFdU-10" edge="1">
          <mxGeometry relative="1" as="geometry" />
        </mxCell>
        <mxCell id="blPEiR4erYXjFKSHEFdU-13" style="edgeStyle=orthogonalEdgeStyle;rounded=0;orthogonalLoop=1;jettySize=auto;html=1;exitX=0.924;exitY=0.549;exitDx=0;exitDy=0;exitPerimeter=0;" parent="1" source="DvCjDTtEMwee82FYKSQj-1" target="blPEiR4erYXjFKSHEFdU-12" edge="1">
          <mxGeometry relative="1" as="geometry" />
        </mxCell>
        <mxCell id="blPEiR4erYXjFKSHEFdU-6" value="&lt;b&gt;Logic App&lt;/b&gt;" style="aspect=fixed;html=1;points=[];align=center;image;fontSize=12;image=img/lib/azure2/integration/Logic_Apps.svg;" parent="1" vertex="1">
          <mxGeometry x="581" y="260" width="67" height="52" as="geometry" />
        </mxCell>
        <mxCell id="blPEiR4erYXjFKSHEFdU-10" value="Data generator API" style="rounded=1;whiteSpace=wrap;html=1;fontStyle=1" parent="1" vertex="1">
          <mxGeometry x="743.5" y="580" width="120" height="80" as="geometry" />
        </mxCell>
        <mxCell id="blPEiR4erYXjFKSHEFdU-12" value="Cosmos DB" style="aspect=fixed;html=1;points=[];align=center;image;fontSize=12;image=img/lib/azure2/databases/Azure_Cosmos_DB.svg;" parent="1" vertex="1">
          <mxGeometry x="1036" y="254" width="64" height="64" as="geometry" />
        </mxCell>
        <mxCell id="blPEiR4erYXjFKSHEFdU-14" value="&lt;span style=&quot;color: rgb(68, 68, 68); text-align: left; background-color: rgb(254, 254, 254);&quot;&gt;Insert the JSON document of each order &lt;br&gt;into your database as a separate entry/record&lt;/span&gt;" style="text;html=1;align=center;verticalAlign=middle;resizable=0;points=[];autosize=1;strokeColor=none;fillColor=none;" parent="1" vertex="1">
          <mxGeometry x="840" y="200" width="260" height="30" as="geometry" />
        </mxCell>
        <mxCell id="blPEiR4erYXjFKSHEFdU-15" value="&lt;b&gt;Important: &lt;/b&gt;Register Event Grid RP" style="text;html=1;align=center;verticalAlign=middle;resizable=0;points=[];autosize=1;strokeColor=#b85450;fillColor=#f8cecc;" parent="1" vertex="1">
          <mxGeometry x="60" y="20" width="200" height="20" as="geometry" />
        </mxCell>
        <mxCell id="blPEiR4erYXjFKSHEFdU-16" value="&lt;pre style=&quot;box-sizing: border-box; max-height: 400px; min-height: 6em; overflow: auto; overflow-wrap: break-word; background: rgb(51, 51, 51); border-radius: 4px; color: white; font-weight: 600; hyphens: auto; margin-top: 0px; margin-bottom: 0px; padding: 0.5em; word-break: break-word; text-align: start;&quot; class=&quot;body-param__example microlight&quot;&gt;&lt;code style=&quot;box-sizing: border-box; font-family: Consolas, monaco, monospace; word-break: break-all;&quot; class=&quot;language-json&quot;&gt;&lt;font style=&quot;font-size: 9px;&quot;&gt;&lt;span style=&quot;box-sizing: inherit;&quot;&gt;{&lt;br&gt;&lt;/span&gt;&lt;span style=&quot;box-sizing: inherit;&quot;&gt;  &lt;/span&gt;&lt;span style=&quot;box-sizing: inherit;&quot; class=&quot;hljs-attr&quot;&gt;&quot;orderHeaderDetailsCSVUrl&quot;&lt;/span&gt;&lt;span style=&quot;box-sizing: inherit;&quot;&gt;: &lt;/span&gt;&lt;span style=&quot;box-sizing: inherit; color: rgb(162, 252, 162);&quot;&gt;&quot;https://soh.blob.core.windows.net/six/XXXXXXXXXXXXXX-OrderHeaderDetails.csv&quot;&lt;/span&gt;&lt;span style=&quot;box-sizing: inherit;&quot;&gt;,&lt;br&gt;&lt;/span&gt;&lt;span style=&quot;box-sizing: inherit;&quot;&gt;  &lt;/span&gt;&lt;span style=&quot;box-sizing: inherit;&quot; class=&quot;hljs-attr&quot;&gt;&quot;orderLineItemsCSVUrl&quot;&lt;/span&gt;&lt;span style=&quot;box-sizing: inherit;&quot;&gt;: &lt;/span&gt;&lt;span style=&quot;box-sizing: inherit; color: rgb(162, 252, 162);&quot;&gt;&quot;https://soh.blob.core.windows.net/six/XXXXXXXXXXXXXX-OrderLineItems.csv&quot;&lt;/span&gt;&lt;span style=&quot;box-sizing: inherit;&quot;&gt;,&lt;br&gt;&lt;/span&gt;&lt;span style=&quot;box-sizing: inherit;&quot;&gt;  &lt;/span&gt;&lt;span style=&quot;box-sizing: inherit;&quot; class=&quot;hljs-attr&quot;&gt;&quot;productInformationCSVUrl&quot;&lt;/span&gt;&lt;span style=&quot;box-sizing: inherit;&quot;&gt;: &lt;/span&gt;&lt;span style=&quot;box-sizing: inherit; color: rgb(162, 252, 162);&quot;&gt;&quot;https://soh.blob.core.windows.net/six/XXXXXXXXXXXXXX-ProductInformation.csv&quot;&lt;/span&gt;&lt;span style=&quot;box-sizing: inherit;&quot;&gt;&lt;br&gt;&lt;/span&gt;}&lt;/font&gt;&lt;/code&gt;&lt;/pre&gt;" style="text;html=1;align=center;verticalAlign=middle;resizable=0;points=[];autosize=1;strokeColor=none;fillColor=none;" parent="1" vertex="1">
          <mxGeometry x="550" y="470" width="560" height="90" as="geometry" />
        </mxCell>
        <mxCell id="DvCjDTtEMwee82FYKSQj-1" value="&lt;b&gt;Logic App&lt;/b&gt;" style="aspect=fixed;html=1;points=[];align=center;image;fontSize=12;image=img/lib/azure2/integration/Logic_Apps.svg;" vertex="1" parent="1">
          <mxGeometry x="770" y="259" width="67" height="52" as="geometry" />
        </mxCell>
        <mxCell id="DvCjDTtEMwee82FYKSQj-2" value="" style="rounded=1;whiteSpace=wrap;html=1;fontSize=9;" vertex="1" parent="1">
          <mxGeometry x="520" y="330" width="120" height="60" as="geometry" />
        </mxCell>
        <mxCell id="DvCjDTtEMwee82FYKSQj-3" value="Batch" style="rounded=0;whiteSpace=wrap;html=1;fontSize=9;fontStyle=1" vertex="1" parent="1">
          <mxGeometry x="670" y="271" width="80" height="40" as="geometry" />
        </mxCell>
      </root>
    </mxGraphModel>
  </diagram>
</mxfile>
